<svg width="1065" height="175" viewBox="0 0 1065 175" fill="none" xmlns="http://www.w3.org/2000/svg">
<g clip-path="url(#clip0_106_52)">
<path d="M132.48 65.3231C135.003 74.2099 134.564 82.987 132.37 89.899C130.066 96.9207 125.458 101.858 119.753 103.503C118.875 103.833 118.326 103.833 117.558 103.833C117.229 103.942 116.9 103.942 116.571 103.942C116.242 104.052 115.803 104.052 115.364 104.052H78.0615L90.2397 134.223C90.3494 134.991 89.9106 135.65 89.4717 136.089C89.0329 136.637 88.1552 136.966 87.6066 136.966H71.0398C70.4912 136.966 69.6135 136.637 69.1747 136.089C68.7358 135.65 68.2969 134.991 68.4067 134.223L62.921 104.052H56.2284L56.1187 103.942C53.3759 104.271 50.1942 102.955 47.6707 100.541C45.1473 98.1275 42.8433 94.6167 41.8559 90.2281C40.5393 85.8396 40.7588 81.6704 41.7462 78.1596C42.7336 74.7585 44.9279 72.2351 47.561 71.0282L47.6707 70.9185L97.042 41.2957C97.5905 40.9666 98.0294 40.7472 98.3585 40.418C98.6877 40.1986 99.1265 39.9792 99.6751 39.7598C100.553 39.3209 101.211 39.1015 102.418 38.7723C108.123 37.1266 114.706 39.3209 120.082 44.1483C125.458 48.9757 130.176 56.4363 132.48 65.3231ZM118.326 98.1275H118.217C120.411 97.5789 122.276 96.2624 123.922 94.2875C127.104 90.4476 128.64 84.6327 128.64 77.611C128.64 74.1002 128.091 70.4796 127.104 66.7494C125.238 59.2888 121.508 53.0351 117.339 48.9757C113.17 44.9163 108.123 42.9415 103.844 44.1483C99.346 45.3552 96.1643 49.4146 94.5186 55.1197C92.7631 60.8248 92.9826 68.0659 94.8477 75.5265C96.9323 82.987 100.333 89.2407 104.722 93.3001C109.001 97.3595 113.609 99.3344 118.326 98.1275ZM104.393 59.2888C105.6 59.0694 106.697 59.1791 107.794 59.5082C109.878 60.386 111.963 62.1414 113.389 64.9939C114.816 67.8465 115.693 71.5768 115.693 74.7585C115.693 76.4042 115.474 77.8305 115.035 79.147C114.048 81.7802 112.621 83.755 110.317 84.3036C108.452 84.8521 105.929 83.9744 104.064 82.1093C102.199 80.2442 100.553 77.3916 99.7848 73.8808C98.7974 70.4796 99.1265 67.0785 99.8945 64.4454C100.663 61.8122 102.528 59.8374 104.393 59.2888Z" fill="#0396A1"/>
<path d="M0 175.042L12.2457 131.55C4.371 118.172 0.224911 102.951 0.224911 87.3141C0.224911 39.1689 39.3939 0 87.539 0C135.684 0 174.853 39.1689 174.853 87.3141C174.853 135.459 135.684 174.628 87.539 174.628C72.5373 174.628 57.8477 170.788 44.8527 163.497L0 175.042ZM47.1457 147.612L49.8183 149.244C61.1485 156.161 74.1923 159.817 87.539 159.817C127.517 159.817 160.041 127.292 160.041 87.3141C160.041 47.336 127.517 14.8114 87.539 14.8114C47.561 14.8114 15.0363 47.336 15.0363 87.3141C15.0363 101.244 18.9953 114.771 26.4844 126.433L28.2842 129.236L21.2324 154.282L47.1457 147.612Z" fill="#0396A1"/>
<path d="M228.44 146L191.32 34H212.92L246.04 135.28H235.32L269.72 34H288.92L322.36 135.28H311.96L345.88 34H365.72L328.6 146H306.52L275.96 54.64H281.72L250.68 146H228.44Z" fill="#0396A1"/>
<path d="M363.231 146L413.631 34H434.111L484.671 146H462.911L419.551 45.04H427.871L384.671 146H363.231ZM386.431 120.08L392.031 103.76H452.511L458.111 120.08H386.431Z" fill="#0396A1"/>
<path d="M503.395 146V34H510.275L590.115 135.92H586.435V34H594.595V146H587.875L507.875 44.08H511.555V146H503.395Z" fill="#0396A1"/>
<path d="M663.788 146.64C655.788 146.64 648.641 144.827 642.348 141.2C636.161 137.573 631.201 132.56 627.468 126.16C623.841 119.76 622.028 112.453 622.028 104.24C622.028 95.92 623.841 88.6134 627.468 82.32C631.201 75.92 636.161 70.9067 642.348 67.28C648.641 63.6534 655.788 61.84 663.788 61.84C671.788 61.84 678.934 63.6534 685.228 67.28C691.521 70.9067 696.481 75.92 700.108 82.32C703.734 88.6134 705.548 95.92 705.548 104.24C705.548 112.453 703.734 119.76 700.108 126.16C696.481 132.56 691.521 137.573 685.228 141.2C678.934 144.827 671.788 146.64 663.788 146.64ZM663.788 139.44C670.188 139.44 675.948 138 681.068 135.12C686.188 132.133 690.188 127.973 693.068 122.64C695.948 117.307 697.388 111.173 697.388 104.24C697.388 97.2 695.948 91.0667 693.068 85.84C690.188 80.5067 686.188 76.4 681.068 73.52C675.948 70.5333 670.188 69.04 663.788 69.04C657.388 69.04 651.628 70.5333 646.508 73.52C641.494 76.4 637.494 80.5067 634.508 85.84C631.628 91.0667 630.188 97.2 630.188 104.24C630.188 111.173 631.628 117.307 634.508 122.64C637.494 127.973 641.494 132.133 646.508 135.12C651.628 138 657.388 139.44 663.788 139.44Z" fill="#0396A1"/>
<path d="M754.686 146.64C747.326 146.64 741.673 144.613 737.726 140.56C733.886 136.507 731.966 130.96 731.966 123.92V44.24H739.966V123.12C739.966 128.453 741.3 132.56 743.966 135.44C746.633 138.32 750.473 139.76 755.486 139.76C760.713 139.76 765.033 138.213 768.446 135.12L771.806 140.72C769.673 142.747 767.06 144.24 763.966 145.2C760.98 146.16 757.886 146.64 754.686 146.64ZM716.606 69.36V62.48H766.526V69.36H716.606Z" fill="#0396A1"/>
<path d="M794.116 146V62.48H802.116V146H794.116ZM798.116 42.16C796.303 42.16 794.756 41.52 793.476 40.24C792.196 38.96 791.556 37.4667 791.556 35.76C791.556 33.9467 792.196 32.4 793.476 31.12C794.756 29.84 796.303 29.2 798.116 29.2C800.036 29.2 801.583 29.84 802.756 31.12C804.036 32.2934 804.676 33.7867 804.676 35.6C804.676 37.4133 804.036 38.96 802.756 40.24C801.583 41.52 800.036 42.16 798.116 42.16Z" fill="#0396A1"/>
<path d="M837.435 146V49.68C837.435 42.7467 839.408 37.2 843.355 33.04C847.408 28.7733 853.168 26.64 860.635 26.64C863.728 26.64 866.768 27.12 869.755 28.08C872.742 28.9334 875.195 30.2667 877.115 32.08L873.915 38.16C872.315 36.56 870.395 35.3867 868.155 34.64C865.915 33.8934 863.515 33.52 860.955 33.52C855.835 33.52 851.942 34.96 849.275 37.84C846.608 40.6133 845.275 44.7733 845.275 50.32V64.4L845.435 68.24V146H837.435ZM822.075 69.36V62.48H871.995V69.36H822.075ZM888.315 146V62.48H896.315V146H888.315ZM892.315 42.16C890.502 42.16 888.955 41.52 887.675 40.24C886.395 38.96 885.755 37.4667 885.755 35.76C885.755 33.9467 886.395 32.4 887.675 31.12C888.955 29.84 890.502 29.2 892.315 29.2C894.235 29.2 895.782 29.84 896.955 31.12C898.235 32.2934 898.875 33.7867 898.875 35.6C898.875 37.4133 898.235 38.96 896.955 40.24C895.782 41.52 894.235 42.16 892.315 42.16Z" fill="#0396A1"/>
<path d="M963.974 146.64C955.547 146.64 948.08 144.827 941.574 141.2C935.174 137.573 930.107 132.56 926.374 126.16C922.747 119.76 920.934 112.453 920.934 104.24C920.934 95.92 922.64 88.6134 926.054 82.32C929.574 75.92 934.374 70.9067 940.454 67.28C946.534 63.6534 953.361 61.84 960.934 61.84C968.507 61.84 975.281 63.6 981.254 67.12C987.334 70.64 992.08 75.6 995.494 82C999.014 88.2934 1000.77 95.6 1000.77 103.92C1000.77 104.24 1000.72 104.613 1000.61 105.04C1000.61 105.36 1000.61 105.733 1000.61 106.16H926.854V99.92H996.294L993.094 102.96C993.2 96.4534 991.814 90.64 988.934 85.52C986.161 80.2934 982.374 76.24 977.574 73.36C972.774 70.3734 967.227 68.88 960.934 68.88C954.747 68.88 949.2 70.3734 944.294 73.36C939.494 76.24 935.707 80.2934 932.934 85.52C930.161 90.64 928.774 96.5067 928.774 103.12V104.56C928.774 111.387 930.267 117.467 933.254 122.8C936.347 128.027 940.56 132.133 945.894 135.12C951.227 138 957.307 139.44 964.134 139.44C969.467 139.44 974.427 138.48 979.014 136.56C983.707 134.64 987.654 131.707 990.854 127.76L995.494 133.04C991.867 137.52 987.28 140.933 981.734 143.28C976.294 145.52 970.374 146.64 963.974 146.64Z" fill="#0396A1"/>
<path d="M1025.52 146V62.48H1033.2V85.36L1032.4 82.8C1034.75 76.08 1038.7 70.9067 1044.24 67.28C1049.79 63.6534 1056.72 61.84 1065.04 61.84V69.68C1064.72 69.68 1064.4 69.68 1064.08 69.68C1063.76 69.5734 1063.44 69.52 1063.12 69.52C1053.84 69.52 1046.59 72.4534 1041.36 78.32C1036.14 84.08 1033.52 92.1334 1033.52 102.48V146H1025.52Z" fill="#0396A1"/>
</g>
<defs>
<clipPath id="clip0_106_52">
<rect width="1065" height="175" fill="white"/>
</clipPath>
</defs>
</svg>
